<svg width="60" height="60" viewBox="0 0 60 60" fill="none" xmlns="http://www.w3.org/2000/svg">
<rect width="60" height="60" rx="30" fill="black"/>
<path d="M7.81534 29.9176V27.6705C8.96875 27.6705 9.76752 27.4418 10.2116 26.9844C10.6624 26.527 10.8878 25.8011 10.8878 24.8068V22.9276C10.8878 21.5952 11.0833 20.5478 11.4744 19.7855C11.8722 19.0232 12.4124 18.4631 13.0952 18.1051C13.7846 17.7472 14.58 17.5218 15.4815 17.429C16.383 17.3295 17.3409 17.2798 18.3551 17.2798V20.8494C17.5597 20.8494 16.9631 20.9455 16.5653 21.1378C16.1742 21.33 15.9124 21.6217 15.7798 22.0128C15.6473 22.4039 15.581 22.8977 15.581 23.4943V26.0398C15.581 26.5436 15.4782 27.0275 15.2727 27.4915C15.0672 27.9555 14.6894 28.3698 14.1392 28.7344C13.589 29.099 12.8035 29.3873 11.7827 29.5994C10.7685 29.8116 9.44602 29.9176 7.81534 29.9176ZM18.3551 42.3466C17.3409 42.3466 16.383 42.2969 15.4815 42.1974C14.58 42.1046 13.7846 41.8793 13.0952 41.5213C12.4124 41.1634 11.8722 40.6032 11.4744 39.8409C11.0833 39.0786 10.8878 38.0312 10.8878 36.6989V34.8295C10.8878 33.8286 10.6624 33.1027 10.2116 32.652C9.76752 32.1946 8.96875 31.9659 7.81534 31.9659V29.7088C9.44602 29.7088 10.7685 29.8182 11.7827 30.0369C12.8035 30.2491 13.589 30.5374 14.1392 30.902C14.6894 31.2599 15.0672 31.6709 15.2727 32.1349C15.4782 32.599 15.581 33.0829 15.581 33.5866V36.1321C15.581 36.7287 15.6473 37.2225 15.7798 37.6136C15.9124 38.0047 16.1742 38.2964 16.5653 38.4886C16.9631 38.6809 17.5597 38.777 18.3551 38.777V42.3466ZM7.81534 31.9659V27.6705H11.7827V31.9659H7.81534ZM51.272 29.7088V31.9659C50.1252 31.9659 49.3265 32.1946 48.8757 32.652C48.425 33.1027 48.1996 33.8286 48.1996 34.8295V36.6989C48.1996 38.0312 48.0007 39.0786 47.603 39.8409C47.2119 40.6032 46.6716 41.1634 45.9822 41.5213C45.2995 41.8793 44.5073 42.1046 43.6058 42.1974C42.7109 42.2969 41.7531 42.3466 40.7322 42.3466V38.777C41.5277 38.777 42.121 38.6809 42.5121 38.4886C42.9098 38.2964 43.175 38.0047 43.3075 37.6136C43.4401 37.2225 43.5064 36.7287 43.5064 36.1321V33.5866C43.5064 33.0829 43.6091 32.599 43.8146 32.1349C44.0201 31.6709 44.398 31.2599 44.9482 30.902C45.4983 30.5374 46.2805 30.2491 47.2947 30.0369C48.3156 29.8182 49.6413 29.7088 51.272 29.7088ZM40.7322 17.2798C41.7531 17.2798 42.7109 17.3295 43.6058 17.429C44.5073 17.5218 45.2995 17.7472 45.9822 18.1051C46.6716 18.4631 47.2119 19.0232 47.603 19.7855C48.0007 20.5478 48.1996 21.5952 48.1996 22.9276V24.8068C48.1996 25.8011 48.425 26.527 48.8757 26.9844C49.3265 27.4418 50.1252 27.6705 51.272 27.6705V29.9176C49.6413 29.9176 48.3156 29.8116 47.2947 29.5994C46.2805 29.3873 45.4983 29.099 44.9482 28.7344C44.398 28.3698 44.0201 27.9555 43.8146 27.4915C43.6091 27.0275 43.5064 26.5436 43.5064 26.0398V23.4943C43.5064 22.8977 43.4401 22.4039 43.3075 22.0128C43.175 21.6217 42.9098 21.33 42.5121 21.1378C42.121 20.9455 41.5277 20.8494 40.7322 20.8494V17.2798ZM51.272 27.6705V31.9659H47.3047V27.6705H51.272Z" fill="#FF7A00"/>
<path d="M38.9201 27.0142H33.9485C33.8822 26.5038 33.7463 26.0431 33.5408 25.6321C33.3353 25.2211 33.0636 24.8698 32.7255 24.5781C32.3874 24.2865 31.9864 24.0644 31.5224 23.9119C31.065 23.7528 30.5579 23.6733 30.0011 23.6733C29.0134 23.6733 28.1616 23.9152 27.4457 24.3991C26.7364 24.883 26.1895 25.5824 25.805 26.4972C25.4272 27.4119 25.2383 28.5189 25.2383 29.8182C25.2383 31.1705 25.4305 32.304 25.815 33.2188C26.2061 34.1269 26.753 34.813 27.4556 35.277C28.1649 35.7344 29.0034 35.9631 29.9712 35.9631C30.5148 35.9631 31.0086 35.8935 31.4528 35.7543C31.9035 35.6151 32.2979 35.4129 32.636 35.1477C32.9807 34.8759 33.2624 34.5478 33.4812 34.1634C33.7066 33.7723 33.8623 33.3314 33.9485 32.8409L38.9201 32.8707C38.8339 33.7723 38.5721 34.6605 38.1346 35.5355C37.7037 36.4105 37.1104 37.2093 36.3548 37.9318C35.5991 38.6477 34.6777 39.2178 33.5906 39.642C32.5101 40.0663 31.2705 40.2784 29.8718 40.2784C28.029 40.2784 26.3784 39.8741 24.9201 39.0653C23.4684 38.25 22.3216 37.0634 21.4798 35.5057C20.6379 33.9479 20.217 32.0521 20.217 29.8182C20.217 27.5777 20.6445 25.6785 21.4996 24.1207C22.3548 22.563 23.5115 21.3797 24.9698 20.571C26.4281 19.7623 28.0621 19.358 29.8718 19.358C31.1048 19.358 32.2449 19.5303 33.2923 19.875C34.3396 20.2131 35.261 20.7102 36.0565 21.3665C36.8519 22.0161 37.4982 22.8149 37.9954 23.7628C38.4925 24.7107 38.8008 25.7945 38.9201 27.0142Z" fill="white"/>
</svg>
